inDegrees=yes
name=ik_S53_A06_T01
DataType=double
version=3
OpenSimVersion=4.3-2021-08-27-4bc7ad9
endheader
time	pelvis_tilt	pelvis_list	pelvis_rotation	pelvis_tx	pelvis_ty	pelvis_tz	hip_flexion_r	hip_adduction_r	hip_rotation_r	knee_angle_r	knee_angle_r_beta	ankle_angle_r	subtalar_angle_r	mtp_angle_r	hip_flexion_l	hip_adduction_l	hip_rotation_l	knee_angle_l	knee_angle_l_beta	ankle_angle_l	subtalar_angle_l	mtp_angle_l	lumbar_extension	lumbar_bending	lumbar_rotation	arm_flex_r	arm_add_r	arm_rot_r	elbow_flex_r	pro_sup_r	wrist_flex_r	wrist_dev_r	arm_flex_l	arm_add_l	arm_rot_l	elbow_flex_l	pro_sup_l	wrist_flex_l	wrist_dev_l
0	0	0	0	0	0.9399999999999999	0	0	0	0	0	0	0	0	0	0	0	0	0	0	0	0	0	0	0	0	0	0	0	0	89.99999999963507	0	0	0	0	0	0	89.99999999869995	0	0
0.02	-5.570393333385338	-0.2994083432794243	19.67703898843921	0	0.9399999999999999	0	3.613775740844463	-1.693611767225791	-1.217612812690491	5.595423575745379	0.09765856444047119	0	0	0	3.613775740844463	-1.693611767225791	-1.217612812690491	5.595423575745379	0.09765856444047119	0	0	0	-3.037479384654155	-1.717958762012397	3.030373277819505	22.85758392072039	-2.638893246997233	-0.3795893164535055	42.34772061049575	125.3945259585108	0	0	22.04713243291067	-4.836355527890451	-5.7192895614267	38.91875422021072	139.0012096482993	0	0
0.04	-5.588412601660224	-0.2945865187365444	19.66560775421777	0	0.9399999999999999	0	3.626516774689169	-1.700119606171369	-1.221974394529833	5.612103639488387	0.09794968647222921	0	0	0	3.626516774689169	-1.700119606171369	-1.221974394529833	5.612103639488387	0.09794968647222921	0	0	0	-3.053405211421158	-1.704720111426277	2.99254049963767	22.81069182827184	-2.626430421949653	-0.2072311221728685	42.41500432964163	125.364433835074	0	0	22.00446961107136	-4.790181069999201	-5.830578519808317	38.95719897048993	139.0270043553008	0	0
0.06	-5.590373749030771	-0.2971225096375744	19.69486401851489	0	0.9399999999999999	0	3.815771876062938	-1.787664555490662	-1.288959390050507	5.799659304255031	0.1012231503531739	0	0	0	3.815771876062938	-1.787664555490662	-1.288959390050507	5.799659304255031	0.1012231503531739	0	0	0	-3.063058302961852	-1.695440323629041	2.970037762006938	22.82092161190245	-2.651180439176803	-0.1952558767773389	42.49709771035574	125.2773249991775	0	0	22.01140581640496	-4.790207024788766	-5.836263491451346	38.98870633456852	138.9760651796688	0	0
0.08	-4.703763281678641	-0.5240617587615334	22.46863793675805	0	0.9399999999999999	0	39.36308080863655	-12.73927528271228	-10.91238380940622	54.55278750163833	0.9521257580444005	0	0	0	39.36308080863655	-12.73927528271228	-10.91238380940622	54.55278750163833	0.9521257580444005	0	0	0	-3.897973361379103	-0.9760991706557828	0.2344132123760274	22.82559019534097	-2.680388933029074	-0.1536147261400214	42.52538509335333	125.2657471662235	0	0	21.94844666708951	-4.742052436485935	-5.963023786968077	39.05113569958676	139.085546957763	0	0
0.1	-4.696830026879574	-0.5271499744019481	22.47712398084761	0	0.9399999999999999	0	39.37148608902233	-12.7410854328923	-10.91131299469599	54.55333446050775	0.9521353042775447	0	0	0	39.37148608902233	-12.7410854328923	-10.91131299469599	54.55333446050775	0.9521353042775447	0	0	0	-3.893679205018632	-0.9780420000785305	0.2245028645682339	22.8217151480397	-2.662875955432467	-0.189791666197829	42.51820505359735	125.2676188153669	0	0	21.93714025523144	-4.751038906369726	-6.013535127268546	39.03754690764586	139.1113732448068	0	0
0.12	-4.714986109002529	-0.5286484756786235	22.46296737028655	0	0.9399999999999999	0	39.37762577766568	-12.72886486546728	-10.90888546862626	54.55364884261227	0.9521407912803779	0	0	0	39.37762577766568	-12.72886486546728	-10.90888546862626	54.55364884261227	0.9521407912803779	0	0	0	-3.91160264513098	-0.9704707250882707	0.2214370093555352	22.83895428731559	-2.668185513349537	-0.1815935446968128	42.53826287599904	125.2669051262349	0	0	21.9630549386538	-4.770339301131399	-6.004540729738858	39.04974709886259	139.0787333256543	0	0
0.14	-4.737575399471309	-0.5320222818239606	22.44289212037514	0	0.9399999999999999	0	39.37908685592474	-12.72639340720604	-10.90835950123803	54.55372620455101	0.9521421415009247	0	0	0	39.37908685592474	-12.72639340720604	-10.90835950123803	54.55372620455101	0.9521421415009247	0	0	0	-3.933764664929619	-0.9657000357400718	0.238058855312085	22.88939112422534	-2.679436669126853	-0.1836581277765808	42.55183598269613	125.2616376671009	0	0	21.96675430985869	-4.813071588173252	-5.837108860554442	39.06255416829013	138.9356045051822	0	0
0.16	-4.740444796567277	-0.5328506731566575	22.42490793040641	0	0.9399999999999999	0	39.39313998343669	-12.70442346212121	-10.90351919063594	54.55448068676852	0.952155309699768	0	0	0	39.39313998343669	-12.70442346212121	-10.90351919063594	54.55448068676852	0.952155309699768	0	0	0	-3.937841876208578	-0.9618158616546132	0.2448321757237881	22.89774978232295	-2.689500521964831	-0.1658616819072283	42.59226302040591	125.2116565073672	0	0	21.94433371586804	-4.836076049667766	-5.7340902922246	39.10835673414821	138.8440836341422	0	0
0.18	-4.740561649396402	-0.534774058948129	22.41192052311413	0	0.9399999999999999	0	39.40373789765376	-12.68676590551214	-10.89973777316176	54.55504328841293	0.95216512895084	0	0	0	39.40373789765376	-12.68676590551214	-10.89973777316176	54.55504328841293	0.95216512895084	0	0	0	-3.93956590282487	-0.9605222805257492	0.2448776703966984	22.89654142962244	-2.690912519621306	-0.1565448936384634	42.61700450477549	125.1794859165215	0	0	21.92538026386314	-4.862434931595601	-5.691102849176064	39.13797024819856	138.7758762089699	0	0
0.2	-4.746801363938332	-0.5253122367936194	22.39908991903564	0	0.9399999999999999	0	39.40687317968471	-12.6795002766594	-10.89837725224328	54.55519829754261	0.9521678343705237	0	0	0	39.40687317968471	-12.6795002766594	-10.89837725224328	54.55519829754261	0.9521678343705237	0	0	0	-3.942037113323495	-0.9482067957936821	0.2410164581993467	22.88314596711276	-2.693511208852684	-0.1359069070409243	42.63151339473686	125.1947882730317	0	0	21.91695251774324	-4.858839864428646	-5.68303450259633	39.13840804736061	138.7767328216686	0	0
0.22	-4.748150707419184	-0.5247330498588487	22.38260924366096	0	0.9399999999999999	0	39.41544163928416	-12.66958679523101	-10.89585395884269	54.55568150619195	0.9521762679524287	0	0	0	39.41544163928416	-12.66958679523101	-10.89585395884269	54.55568150619195	0.9521762679524287	0	0	0	-3.943761301302006	-0.9452676338754966	0.2505350336755229	22.87775551270493	-2.674826696589751	-0.2283531450837893	42.6597324291461	125.2094745434197	0	0	21.91489508738043	-4.857313520505956	-5.729751625574389	39.15581161142957	138.7363367528411	0	0
0.24	-4.750261939704247	-0.5159031045980587	22.3819953371908	0	0.9399999999999999	0	39.41446420031441	-12.67066107423624	-10.89614818796108	54.55562908775489	0.9521753530781134	0	0	0	39.41446420031441	-12.67066107423624	-10.89614818796108	54.55562908775489	0.9521753530781134	0	0	0	-3.942394779177429	-0.9355446883854688	0.236341858596234	22.8789240157038	-2.672845477720679	-0.2050635680880037	42.63648564546776	125.2654268795671	0	0	21.91891000531595	-4.859974698865207	-5.790712314160583	39.12089596178009	138.7765640578231	0	0
0.26	-4.75338138343988	-0.5104909025118121	22.35460919247559	0	0.9399999999999999	0	39.42126961415647	-12.66250295054616	-10.89411633082032	54.55601225602781	0.9521820406260649	0	0	0	39.42126961415647	-12.66250295054616	-10.89411633082032	54.55601225602781	0.9521820406260649	0	0	0	-3.943773499288263	-0.9275684914614323	0.239544024893458	22.90431715347257	-2.661479430383542	-0.2809059248723479	42.64253691137769	125.2717196161836	0	0	21.91980385126292	-4.845355818016698	-5.873760080066034	39.13280587514774	138.7515579668399	0	0
0.28	-4.757869721016466	-0.5031635092743642	22.33184823337304	0	0.9399999999999999	0	39.4201478458647	-12.66499846006693	-10.8945970860638	54.55595893604882	0.9521811100168744	0	0	0	39.4201478458647	-12.66499846006693	-10.8945970860638	54.55595893604882	0.9521811100168744	0	0	0	-3.945023540081804	-0.9191811418719482	0.2372984065821588	22.91585634999553	-2.642776726625057	-0.2795245480395082	42.57678980440698	125.3512986414319	0	0	21.91328618010007	-4.827293051702043	-5.931621652935973	39.10818273640665	138.8248732864499	0	0
0.3	-4.759198350028329	-0.4963841450327322	22.33566243211516	0	0.9399999999999999	0	39.42552729501935	-12.65743330218011	-10.89285277310361	54.55625460375995	0.9521862703919255	0	0	0	39.42552729501935	-12.65743330218011	-10.89285277310361	54.55625460375995	0.9521862703919255	0	0	0	-3.944192043379871	-0.9100913255466744	0.2265780165276618	22.9123153123772	-2.634293661770614	-0.2780241844791198	42.57359376172726	125.3523594516511	0	0	21.90003912482299	-4.810161508426624	-5.99665910712681	39.11444534359666	138.8170770921053	0	0
0.32	-4.760716220620312	-0.4889202971525258	22.3380609249004	0	0.9399999999999999	0	39.43209782266103	-12.64728748448151	-10.89060934153108	54.55660948385336	0.9521924642180052	0	0	0	39.43209782266103	-12.64728748448151	-10.89060934153108	54.55660948385336	0.9521924642180052	0	0	0	-3.943430195734079	-0.8995810442406754	0.2109255002505384	22.91220702637837	-2.649786176567291	-0.2618787208539461	42.57863403365847	125.3450901747387	0	0	21.88698985197272	-4.798647307964697	-6.089062415923549	39.13850747804052	138.8113689818196	0	0
